# xmcd CD database file
#
# Track frame offsets:
#	150
#	18052
#	39677
#	56922
#	76972
#	99130
#	126530
#	154210
#	179810
#	198375
#	216680
#	242137
#	263805
#	291722
#
# Disc length: 4247 seconds
#
# Revision: 0
# Processed by: cddbd v1.5PL3 Copyright (c) Steve Scherf et al.
# Submitted via: CDex 1.51
#
DISCID=db10950e
DTITLE=Compilation - Asian Muse
DYEAR=2004
DGENRE=New Age
TTITLE0=薇薇／ベールをあげて
TTITLE1=アン・サリー／蘇州夜曲
TTITLE2=amin／百合の花
TTITLE3=ウー・ファン／花咲く旅路
TTITLE4=イラナ／この街
TTITLE5=Azami／石楠花の花
TTITLE6=A.K.Debi／アナラクシュミー
TTITLE7=フン･タン／What the Bird Says
TTITLE8=シャオ･ロン／楽園
TTITLE9=Phuong Dai／Rung Xua Da Khep
TTITLE10=櫻田素子／Jalan Bebek
TTITLE11=みやざきみえこ／大きな河と小さな恋
TTITLE12=リーチェ／オギヨディオラ
TTITLE13=チェン・ミン／THE LAST EMPEROR
EXTD=YEAR: 2004
EXTT0=
EXTT1=
EXTT2=
EXTT3=
EXTT4=
EXTT5=
EXTT6=
EXTT7=
EXTT8=
EXTT9=
EXTT10=
EXTT11=
EXTT12=
EXTT13=
PLAYORDER=
